<svg width="20" height="21" viewBox="0 0 20 21" fill="none" 
  xmlns="http://www.w3.org/2000/svg">
  <path d="M10 17.824C11.216 17.824 12.36 17.52 13.432 16.912C14.472 16.352 15.328 15.576 16 14.584C15.984 13.976 15.608 13.416 14.872 12.904C14.232 12.472 13.416 12.12 12.424 11.848C11.528 11.608 10.712 11.488 9.976 11.488C9.256 11.488 8.448 11.608 7.552 11.848C6.56 12.12 5.752 12.472 5.128 12.904C4.392 13.416 4.016 13.976 4 14.584C4.672 15.576 5.528 16.352 6.568 16.912C7.656 17.52 8.8 17.824 10 17.824ZM10 3.616C9.472 3.616 8.976 3.752 8.512 4.024C8.048 4.296 7.68 4.664 7.408 5.128C7.136 5.592 7 6.088 7 6.616C7 7.144 7.136 7.64 7.408 8.104C7.68 8.568 8.048 8.936 8.512 9.208C8.976 9.48 9.472 9.616 10 9.616C10.528 9.616 11.024 9.48 11.488 9.208C11.952 8.936 12.32 8.568 12.592 8.104C12.864 7.64 13 7.144 13 6.616C13 6.088 12.864 5.592 12.592 5.128C12.32 4.664 11.952 4.296 11.488 4.024C11.024 3.752 10.528 3.616 10 3.616ZM10 0.615999C11.824 0.615999 13.512 1.072 15.064 1.984C16.568 2.848 17.752 4.032 18.616 5.536C19.528 7.088 19.984 8.776 19.984 10.6C19.984 12.424 19.528 14.112 18.616 15.664C17.752 17.168 16.568 18.352 15.064 19.216C13.512 20.128 11.824 20.584 10 20.584C8.176 20.584 6.488 20.128 4.936 19.216C3.432 18.336 2.248 17.144 1.384 15.64C0.472 14.088 0.0160002 12.408 0.0160002 10.6C0.0160002 8.792 0.472 7.112 1.384 5.56C2.264 4.056 3.456 2.864 4.96 1.984C6.512 1.072 8.192 0.615999 10 0.615999Z" fill="white"/>
</svg>
